<svg width="289" height="45" viewBox="0 0 289 45" fill="none" xmlns="http://www.w3.org/2000/svg">
<g clip-path="url(#clip0_183_896)">
<path d="M51.0046 18.8951C51.0046 35.6883 40.6943 41.0778 35.2268 36.3132C30.7746 32.4078 29.4468 24.1283 22.7295 23.2691C14.2157 22.2537 13.4346 33.5794 7.81081 33.5794C1.24973 33.5794 0 24.1283 0 19.2075C0 14.2086 1.40595 7.41316 6.95162 7.41316C13.4346 7.41316 13.8251 17.1767 21.9484 16.63C29.9935 16.0832 30.1497 5.92911 35.4611 1.63316C40.0695 -2.19413 51.0046 1.86749 51.0046 18.8951Z" fill="#97FCE4"/>
<path d="M75.2129 34.5164V1.94531H78.3374V16.0829H97.3957V1.94531H100.442V34.5945H97.3957V18.7385H78.3374V34.5945H75.2129V34.5164Z" fill="white"/>
<path d="M108.571 44.4363L112.789 33.9698L103.65 12.0215H106.853L112.867 26.862C113.18 27.7993 113.726 28.9709 114.351 30.455C114.429 30.2207 114.507 29.9863 114.664 29.752C114.742 29.5177 114.82 29.2834 114.976 29.049C115.132 28.6585 115.367 28.268 115.445 27.8774C115.523 27.4869 115.679 27.1744 115.835 26.7839L121.459 11.9434H124.505L111.696 44.3582H108.571V44.4363Z" fill="white"/>
<path d="M127.477 44.4362V12.0213H130.367V13.4273C130.367 13.7397 130.367 13.9741 130.367 14.2865C130.367 14.5989 130.367 14.9113 130.367 15.2238C130.367 15.38 130.367 15.5362 130.367 15.6924C130.367 15.8486 130.367 16.0049 130.367 16.1611C131.148 14.7551 132.163 13.5835 133.647 12.7243C135.053 11.8651 136.615 11.3965 138.412 11.3965C140.521 11.3965 142.317 11.9432 143.879 12.9586C145.441 13.9741 146.613 15.38 147.472 17.1765C148.331 18.973 148.722 21.0038 148.722 23.2689C148.722 25.6122 148.331 27.643 147.472 29.4395C146.613 31.2359 145.363 32.6419 143.879 33.7354C142.317 34.7508 140.521 35.2976 138.568 35.2976C136.85 35.2976 135.365 34.907 133.881 34.0478C132.475 33.2668 131.382 32.017 130.523 30.4549C130.523 30.6892 130.523 30.9235 130.523 31.2359C130.523 31.4703 130.523 31.7046 130.523 31.9389C130.523 32.0951 130.523 32.3295 130.523 32.4857C130.523 32.6419 130.523 32.7981 130.523 32.9543V44.5143H127.477V44.4362ZM137.943 32.8762C139.505 32.8762 140.833 32.4857 142.005 31.6265C143.176 30.7673 144.035 29.6738 144.738 28.1897C145.363 26.7057 145.676 25.0654 145.676 23.1908C145.676 21.3162 145.363 19.6759 144.738 18.27C144.114 16.8641 143.176 15.6924 142.005 14.9114C140.833 14.1303 139.505 13.7397 137.943 13.7397C136.459 13.7397 135.131 14.1303 133.96 14.9114C132.788 15.6924 131.851 16.7859 131.226 18.27C130.601 19.6759 130.21 21.3943 130.21 23.2689C130.21 25.1435 130.523 26.8619 131.226 28.2678C131.851 29.7519 132.788 30.8454 133.96 31.7046C135.131 32.5638 136.459 32.8762 137.943 32.8762Z" fill="white"/>
<path d="M162.543 35.2195C160.434 35.2195 158.559 34.7508 156.919 33.8135C155.279 32.8762 154.029 31.4703 153.17 29.6738C152.31 27.8773 151.842 25.6903 151.842 23.1908C151.842 20.9257 152.31 18.8948 153.248 17.0984C154.185 15.3019 155.435 13.8959 156.997 12.8805C158.559 11.8651 160.356 11.3184 162.308 11.3184C164.417 11.3184 166.214 11.787 167.776 12.8024C169.26 13.7397 170.432 15.1457 171.213 16.8641C171.994 18.6606 172.384 20.6913 172.384 23.0346V23.6594H154.732C154.732 25.6121 155.044 27.2525 155.747 28.6584C156.45 30.0643 157.309 31.0797 158.481 31.7827C159.653 32.4857 161.059 32.8763 162.543 32.8763C164.339 32.8763 165.823 32.4857 167.073 31.6265C168.244 30.7673 169.026 29.4394 169.26 27.7211H172.15C171.916 29.127 171.447 30.4548 170.588 31.5484C169.807 32.6419 168.713 33.5792 167.307 34.204C166.057 34.8289 164.417 35.2195 162.543 35.2195ZM169.26 21.4724C169.26 19.1292 168.635 17.2546 167.385 15.8486C166.136 14.4427 164.495 13.7398 162.308 13.7398C160.199 13.7398 158.481 14.4427 157.153 15.9267C155.825 17.4108 155.044 19.2073 154.81 21.4724H169.26Z" fill="white"/>
<path d="M176.836 34.5165V12.0213H179.726V13.5054C179.726 13.7397 179.726 13.9741 179.726 14.2084C179.726 14.4427 179.726 14.677 179.726 14.9113C179.726 15.1457 179.726 15.4581 179.726 15.6924C179.726 15.9268 179.726 16.2392 179.726 16.5516C180.351 15.0676 181.288 13.8178 182.694 12.8805C184.022 11.9432 185.584 11.3965 187.381 11.3965C187.849 11.3965 188.24 11.3965 188.63 11.4746V14.2865C188.084 14.2084 187.615 14.2084 187.224 14.2084C185.74 14.2084 184.412 14.5208 183.319 15.2238C182.225 15.9268 181.366 16.8641 180.741 18.1138C180.116 19.3635 179.804 20.8476 179.804 22.4878V34.5946H176.836V34.5165Z" fill="white"/>
<path d="M195.812 33.8925L195.656 34.5174H186.518L186.674 33.8925C189.173 33.6582 190.267 32.8771 190.657 31.0025L195.812 6.71087C196.359 4.21141 195.578 3.82087 192.922 4.36762L193.079 3.74276L198.702 1.86816H199.327L193.157 31.0806C192.688 32.8771 193.391 33.6582 195.812 33.8925Z" fill="white"/>
<path d="M206.205 33.8927L206.049 34.5176H196.832L196.988 33.8927C199.488 33.6584 200.581 32.8774 200.972 31.0027L204.096 16.1622C204.643 13.6627 203.94 13.2722 201.206 13.8189L201.362 13.1941L206.986 11.3195H207.611L203.471 31.0027C203.081 32.8774 203.784 33.6584 206.205 33.8927ZM207.767 3.11816C209.017 3.11816 209.798 4.05546 209.642 5.30519C209.486 6.55492 208.392 7.41411 207.22 7.41411C205.971 7.41411 205.111 6.47681 205.268 5.30519C205.346 4.05546 206.439 3.11816 207.767 3.11816Z" fill="white"/>
<path d="M221.989 41.0776L224.489 29.4394C222.927 32.8762 219.568 35.2195 216.131 35.2195C210.508 35.2195 207.852 29.9081 209.57 22.0192C210.742 16.2392 215.897 11.3184 221.989 11.3184C224.801 11.3184 227.145 12.5681 228.082 14.4427L230.191 11.3184H230.816L224.411 41.0776C223.942 43.1084 225.582 43.4989 227.223 43.8114L227.066 44.4363H216.522L216.678 43.8114C219.802 43.4989 221.599 43.1084 221.989 41.0776ZM217.693 33.5792C220.583 33.5792 223.473 31.0797 224.879 28.1116L226.754 19.2074C227.223 16.0049 225.739 12.6462 221.286 12.6462C217.069 12.6462 213.476 16.4735 212.304 22.0192C210.898 28.8147 212.929 33.5792 217.693 33.5792Z" fill="white"/>
<path d="M262.283 33.8927L262.127 34.5176H252.91L253.066 33.8927C255.566 33.6584 256.659 32.8774 257.05 31.0027L260.174 16.1622C260.721 13.6627 260.018 13.2722 257.284 13.8189L257.44 13.1941L263.064 11.3195H263.689L259.549 31.0027C259.159 32.8774 259.862 33.6584 262.283 33.8927ZM263.845 3.11816C265.095 3.11816 265.876 4.05546 265.72 5.30519C265.564 6.55492 264.47 7.41411 263.299 7.41411C262.049 7.41411 261.19 6.47681 261.346 5.30519C261.502 4.05546 262.596 3.11816 263.845 3.11816Z" fill="white"/>
<path d="M249.243 30.9236L251.351 21.0038L253.382 11.3184H252.757L247.134 13.193L246.977 13.8178C249.633 13.2711 250.336 13.6616 249.867 16.1611L247.212 28.8146C244.244 31.5484 242.213 33.1886 239.635 33.1886C236.511 33.1886 234.871 31.0798 235.652 27.4087L239.088 11.3184H238.464L232.84 13.193L232.684 13.8178C235.339 13.2711 236.12 13.6616 235.574 16.1611L233.152 27.7211C232.215 32.017 234.402 35.1413 238.385 35.1413C241.041 35.1413 243.384 33.6574 247.055 29.752L246.899 30.533L246.118 34.3602H251.976L252.133 33.6574C249.555 33.5792 248.852 32.8763 249.243 30.9236Z" fill="white"/>
<path d="M286.812 10.4581L288.609 1.78809H287.984L282.36 3.66268L282.204 4.28755C284.86 3.74079 285.563 4.13133 285.094 6.63079L283.532 14.0511C282.516 12.4108 280.329 11.3173 277.83 11.3173C271.659 11.3173 266.582 16.2381 265.254 22.4087C263.692 29.907 266.27 35.2184 271.894 35.2184C275.408 35.2184 278.767 32.797 280.329 29.3603L279.939 31.313L279.236 34.5154L285.094 34.4373L285.25 33.8124C282.829 33.5781 282.126 32.797 282.516 30.9224L286.812 10.4581ZM280.564 28.0324C279.236 31.0787 276.268 33.5781 273.378 33.5781C268.613 33.5781 266.582 28.8135 267.91 22.4087C269.16 16.3943 272.831 12.6451 277.049 12.6451C281.579 12.6451 283.063 16.2381 282.438 19.4405L282.204 20.456L280.564 28.0324Z" fill="white"/>
</g>
<defs>
<clipPath id="clip0_183_896">
<rect width="289" height="44.5216" fill="white" transform="translate(0 0.150391)"/>
</clipPath>
</defs>
</svg>
