<svg width="329" height="65" viewBox="0 0 329 65" fill="none" xmlns="http://www.w3.org/2000/svg">
<path d="M35.7454 21.2941C36.4525 21.2388 37.1216 21.235 37.8169 21.3822C38.56 21.5396 39.2555 21.8255 39.7897 22.3225C40.7763 23.2402 41.4948 24.4697 42.3078 25.5125C44.9083 28.7921 47.4058 32.1355 49.7974 35.5388C53.4302 40.6039 57.2485 45.5691 60.7759 50.6933C58.9485 50.7129 57.118 50.6928 55.2903 50.6933C52.6207 46.6736 49.6836 42.7877 46.7942 38.8921L37.3937 26.0795L36.7308 25.1249C35.0857 27.7748 33.1111 30.2897 31.2757 32.8386C28.5782 36.6033 25.9066 40.3828 23.261 44.1767C21.7252 46.3638 20.1237 48.5027 18.6873 50.7451C16.9252 50.7731 15.1591 50.7607 13.3965 50.7677C14.3627 48.8747 16.3272 46.4582 17.6113 44.6541L24.8703 34.3433L30.2919 26.5946C31.1551 25.3666 31.9716 24.058 32.9461 22.8989C33.6952 22.0078 34.4898 21.4576 35.7454 21.2941Z" fill="#5AD885"/>
<path d="M76.8562 13.3818C76.8838 13.4013 76.8987 13.432 76.9173 13.4588C77.0252 13.615 76.7917 14.2968 76.7407 14.4858L73.1206 27.5127C71.8174 26.6138 70.5683 25.61 69.3281 24.6435C67.9863 26.7999 66.3633 28.8671 64.8616 30.94C62.6506 34.0355 60.4216 37.1209 58.1748 40.1959C57.6155 39.6399 57.133 39.0059 56.6311 38.4079L55.1973 36.7147C58.7215 31.773 62.1016 26.7402 65.7954 21.8956C64.7999 21.1668 63.625 20.623 62.6254 19.8871C62.4029 19.7233 62.1532 19.5549 62.1273 19.2897C62.2946 19.079 62.5269 18.9821 62.7796 18.8725C64.4229 18.16 66.1728 17.6023 67.8462 16.9425C70.8489 15.7589 73.821 14.4982 76.8562 13.3818Z" fill="#5AD885"/>
<path d="M71.3662 29.8711L71.5043 29.925C71.623 30.568 71.5399 31.3196 71.5394 31.9736L71.5382 36.1484C71.5337 41.008 71.5598 45.8675 71.6164 50.727C70.0621 50.6959 68.5072 50.6908 66.9528 50.7118L66.8092 50.7212L66.7048 50.6372C66.5272 49.7963 66.653 47.793 66.6428 46.8353C66.6041 43.2519 66.5426 39.6474 66.65 36.0654C68.2204 34.0255 69.605 31.7796 71.3662 29.8711Z" fill="#5AD885"/>
<path d="M37.3766 32.3672C37.8839 32.5362 38.3179 32.768 38.7772 33.0197C38.6949 36.4004 38.7449 39.7915 38.7502 43.1732C38.7542 45.6684 38.6838 48.1878 38.7997 50.6803L35.3369 50.6815L33.9036 50.6913C33.9111 48.9313 33.7429 38.0819 34.072 37.2908C34.4246 36.4434 35.1497 35.6372 35.6993 34.8819C36.3029 34.0678 36.8625 33.2286 37.3766 32.3672Z" fill="#5AD885"/>
<path d="M156.531 28.9531C157.751 29.0807 159.041 29.0365 160.273 29.0756L160.276 39.3599C160.275 41.1682 160.397 43.0551 160.192 44.8549C160.106 45.6083 159.932 46.3765 159.586 47.0713C158.816 48.6166 157.257 49.6723 155.507 50.2327C152.795 51.1014 149.433 50.8858 146.852 49.7726C144.73 48.8579 143.844 47.3905 143.115 45.4944L146.741 45.5408C147.095 46.092 147.428 46.5828 148.003 46.9774C149.577 48.0577 151.526 48.1173 153.403 47.8813C154.137 47.7183 154.9 47.5254 155.483 47.0751C157.225 45.7302 156.524 42.5263 156.677 40.6432C156.279 41.1874 155.892 41.7674 155.367 42.223C154.172 43.2595 152.704 43.8118 151.026 43.7703C148.828 43.7157 146.477 42.9621 144.953 41.5202C143.363 40.0154 142.713 38.0372 142.794 36.0005C142.872 34.0153 143.745 32.1132 145.417 30.7672C147.032 29.467 149.394 28.8946 151.546 29.0171C153.761 29.1432 155.143 30.1643 156.548 31.5699L156.531 28.9531ZM152.183 40.8966C155.012 40.6045 157.045 38.3313 156.73 35.8107C156.416 33.2901 153.873 31.4694 151.04 31.7373C148.188 32.007 146.126 34.29 146.442 36.828C146.759 39.366 149.333 41.1907 152.183 40.8966Z" fill="#DEDBD9"/>
<path d="M189.855 23.5695C191.23 23.5578 192.605 23.5338 193.979 23.6016C195.399 25.7117 196.51 28.0428 197.706 30.2616C199.297 33.2158 200.947 36.1429 202.517 39.1068C204.983 34.0207 208.259 28.6149 211.121 23.6476C212.404 23.6478 213.686 23.6561 214.969 23.6731C214.809 30.3645 214.992 37.0927 214.991 43.7875L211.412 43.7983L211.418 34.3724L211.434 29.949C208.74 34.5387 206.383 39.2966 203.681 43.8916L201.368 43.872C199.946 42.2644 198.951 39.9785 197.957 38.1242L193.391 29.5933C193.553 34.3 193.399 39.0566 193.402 43.7695L189.831 43.7734C189.62 37.0611 189.797 30.2858 189.855 23.5695Z" fill="#DEDBD9"/>
<path d="M107.447 23.9728C108.815 23.9689 110.188 24.0386 111.554 24.081C111.647 30.707 111.6 37.3388 111.606 43.9654C110.323 43.9146 109.035 43.9346 107.75 43.9355L107.737 36.5718C107.728 34.5415 107.612 32.4953 107.737 30.4676C107.053 31.547 106.509 32.7375 105.927 33.864C104.195 37.2134 102.602 40.7228 100.485 43.8924L97.5397 43.8946C94.8886 39.5319 92.752 34.8545 90.4715 30.3321C90.6134 32.0659 90.5578 33.8237 90.555 35.5615L90.5046 43.8338C89.3308 43.9045 88.1306 43.8726 86.953 43.8842C86.8218 41.5492 86.9063 39.1795 86.9029 36.8415L86.8789 23.9744L90.7658 23.9834C92.2682 25.8771 93.3104 28.346 94.3957 30.4498C95.9911 33.5426 97.6672 36.6208 99.0307 39.8018C101.827 34.5168 104.55 29.2167 107.447 23.9728Z" fill="#DEDBD9"/>
<path d="M120.459 29.0772C120.754 29.0288 121.044 29.0264 121.342 29.0264C123.395 29.0266 125.819 29.5479 127.28 30.908C128.092 31.6636 128.572 32.6446 128.82 33.6565C129.376 35.9189 129.029 41.3603 129.007 43.9148C127.864 43.8899 126.719 43.8996 125.576 43.8932L125.559 41.3279C125.022 41.9524 124.519 42.5466 123.813 43.0307C122.315 44.0582 120.477 44.3562 118.637 44.1409C116.764 43.922 115.325 43.2148 114.163 41.8869C113.926 41.4861 113.721 41.0686 113.633 40.6194C113.432 39.6078 113.603 38.5992 114.319 37.7741C116.712 35.0168 122.074 35.3731 125.554 35.0344C125.313 33.9132 125.096 32.9539 124.051 32.1926C123.202 31.574 122.083 31.347 121.004 31.446C119.404 31.5925 118.482 32.3226 117.538 33.3914C116.351 33.3899 115.176 33.3259 114.008 33.1354C114.333 32.5056 114.663 31.9097 115.148 31.3624C116.525 29.809 118.355 29.3143 120.459 29.0772ZM118.704 41.2894C120.307 41.7089 122.003 41.5268 123.475 40.8215C124.476 40.3418 125.126 39.7125 125.434 38.7358C125.59 38.2389 125.82 37.5744 125.539 37.0918C125.346 37.0792 125.222 37.072 125.031 37.1111C123.084 37.3249 119.104 37.3152 117.866 38.7725C117.54 39.1553 117.449 39.6755 117.561 40.1403C117.676 40.6159 118.089 40.9582 118.54 41.2034C118.594 41.2329 118.649 41.2606 118.704 41.2894Z" fill="#DEDBD9"/>
<path d="M224.6 29.0811C224.838 29.056 225.076 29.0402 225.315 29.0342C227.261 28.9806 229.433 29.4674 230.842 30.7111C231.621 31.4049 232.161 32.2816 232.401 33.239C232.768 34.6472 232.601 36.2429 232.593 37.6843L232.551 43.8947C231.509 44.006 230.44 43.9794 229.392 43.99C229.312 43.0498 229.345 42.0866 229.331 41.1431C228.723 41.7969 228.11 42.5298 227.358 43.0601C225.955 44.0511 223.781 44.3041 222.053 44.0859C220.318 43.8668 218.985 43.2031 217.939 41.9438C217.713 41.5699 217.546 41.1693 217.444 40.7542C217.196 39.7841 217.274 38.7597 217.893 37.9104C220.072 34.9213 225.919 35.4439 229.382 34.7746C229.14 33.819 228.946 32.9943 228.079 32.3122C227.247 31.6583 226.078 31.4572 224.997 31.5294C223.323 31.6411 222.465 32.4117 221.459 33.4939L218.146 33.0126C218.465 32.4057 218.793 31.8208 219.27 31.2966C220.644 29.7868 222.529 29.2918 224.6 29.0811ZM221.854 41.4616C223.085 42.0027 224.213 42.0569 225.524 41.6684C227.065 41.2113 228.232 40.289 229.257 39.201C229.283 38.41 229.36 37.5889 229.238 36.8042L229.133 36.7549C228.393 36.9751 227.662 37.1808 226.892 37.2958C225.09 37.5653 221.828 37.5198 220.896 39.1973C220.703 39.5442 220.725 39.8919 220.873 40.2456C221.084 40.7494 221.408 41.1092 221.854 41.4616Z" fill="#DEDBD9"/>
<path d="M180.934 28.9775C182.442 29.029 183.872 29.4052 184.957 30.3889C185.664 31.0305 186.138 31.838 186.375 32.7093C186.791 34.2401 186.608 35.9952 186.609 37.5638L186.619 43.7707L183.011 43.7782C182.984 41.8125 183.013 39.8436 183.013 37.8775C183.014 36.6613 183.117 35.3527 182.852 34.1574C182.723 33.5784 182.466 33.0006 182.028 32.551C181.511 32.0208 180.795 31.7399 180.013 31.7003C178.272 31.6123 176.984 32.1829 175.716 33.1803C175.283 33.6114 174.95 34.0962 174.602 34.5824C174.4 37.5973 174.58 40.7213 174.587 43.7474L171.073 43.7729C171.036 38.9019 171.05 34.0307 171.116 29.1599C172.208 29.1058 173.305 29.1014 174.398 29.0809L174.383 31.6011C176.34 29.7397 178.108 29.1317 180.934 28.9775Z" fill="#DEDBD9"/>
<path d="M234.75 29.2591C235.823 29.2294 237.031 29.11 238.086 29.2882C239.701 29.5607 242.167 33.3857 243.085 34.5909C244.652 32.8732 245.956 30.956 247.619 29.3064C248.899 29.218 250.213 29.2677 251.497 29.2648C249.414 31.7419 247.268 34.1726 245.206 36.6642C247.338 39.0422 249.4 41.5336 251.366 44.0223C250.089 44.0472 248.822 44.0604 247.545 44.0171C245.871 42.4733 244.455 40.5413 243.102 38.7671C241.692 40.5046 240.234 42.2439 238.696 43.893C237.37 43.895 235.998 43.8332 234.684 43.9896C236.691 41.5371 238.972 39.1903 240.866 36.6809C238.938 34.1358 236.64 31.831 234.75 29.2591Z" fill="#DEDBD9"/>
<path d="M132.304 29.0381C133.476 29.1135 134.664 29.0742 135.838 29.0682L135.822 31.5713C136.201 31.2006 136.576 30.8227 136.97 30.4655C138.104 29.4393 139.349 29.1206 140.927 29.1171C141.437 29.1162 141.941 29.0695 142.321 29.4081C142.499 30.3803 142.379 31.4511 142.356 32.4366C141.689 32.2925 140.996 32.1234 140.314 32.0638C139.274 31.9727 138.25 32.1792 137.436 32.78C136.584 33.4093 136.066 34.5283 135.944 35.4981C135.887 38.3157 135.807 41.1656 135.925 43.9815C134.729 43.9225 133.537 43.9375 132.34 43.9516C132.235 38.9833 132.336 34.0076 132.304 29.0381Z" fill="#DEDBD9"/>
<path d="M163.854 29.0654C165.08 29.1277 166.314 29.1079 167.542 29.1127C167.58 34.0374 167.586 38.9623 167.561 43.8872L163.85 43.8397L163.854 29.0654Z" fill="#DEDBD9"/>
<path d="M165.265 22.8962C166.516 22.6899 167.719 23.4206 167.96 24.5325C168.201 25.6445 167.39 26.7215 166.143 26.9443C164.882 27.1695 163.657 26.4377 163.413 25.3139C163.17 24.19 164.001 23.1047 165.265 22.8962Z" fill="#DEDBD9"/>
<rect x="259.508" y="19.3906" width="56.0779" height="25.3686" rx="8.01113" fill="#1EC88B"/>
<path d="M271.401 37.0752V27.3417H276.822C278.932 27.3417 279.92 28.303 279.92 29.8385C279.92 30.9066 279.359 31.7611 278.278 32.0015V32.0682C279.533 32.2819 280.2 33.1764 280.2 34.3648C280.2 36.1005 278.905 37.0752 276.755 37.0752H271.401ZM272.99 31.5342H276.582C277.784 31.5342 278.344 30.9333 278.344 30.0388C278.344 29.0374 277.597 28.5033 276.448 28.5033H272.99V31.5342ZM272.99 35.9136H276.515C277.944 35.9136 278.585 35.2326 278.585 34.2312C278.585 33.2165 277.904 32.6557 276.649 32.6557H272.99V35.9136ZM285.276 37.1954C282.792 37.1954 281.19 35.8068 281.19 33.577C281.19 31.3072 282.779 29.9052 285.236 29.9052C287.786 29.9052 289.308 31.3739 289.148 33.844H282.739C282.766 35.2727 283.754 36.1005 285.316 36.1005C286.478 36.1005 287.399 35.6198 287.626 34.8855H289.108C288.881 36.2741 287.305 37.1954 285.276 37.1954ZM285.236 31.0001C283.807 31.0001 282.899 31.7344 282.726 32.8961H287.599C287.532 31.6944 286.651 31.0001 285.236 31.0001ZM293.026 37.0752C291.958 37.0752 291.304 36.5812 291.304 35.5397V31.2004H289.875V30.0121H291.304V28.0493L292.826 27.7422V30.0121H294.682V31.2004H292.826V35.0724C292.826 35.5931 293.093 35.74 293.614 35.74H294.682V37.0752H293.026ZM299.031 37.1954C296.921 37.1954 295.519 35.7667 295.519 33.5503C295.519 31.2938 296.935 29.9052 299.031 29.9052C300.473 29.9052 301.474 30.4794 301.902 31.3339H301.968L302.022 30.0121H303.491V37.0752H301.942V35.6866H301.875C301.434 36.6079 300.326 37.1954 299.031 37.1954ZM299.458 35.9937C301.02 35.9937 301.942 34.9656 301.942 33.7773V33.2432C301.942 32.0949 301.02 31.1069 299.458 31.1069C298.043 31.1069 297.082 31.9881 297.082 33.5503C297.082 35.0591 298.03 35.9937 299.458 35.9937Z" fill="#0A0A0A"/>
</svg>
